<svg xmlns="http://www.w3.org/2000/svg" viewBox="0 0 256 256" width="256" height="256">
<g transform="translate(0.000000,256.000000) scale(0.100000,-0.100000)">
<path fill="#007080" stroke="none" d="M1453.0 2346.0 c406 -78 725 -346 861 -724 32 -91 32 -107 1 -128 -42 -27
-70 -7 -90 63 -40 136 -140 300 -255 412 -214 210 -526 316 -830 282 -122 -14
-194 -33 -302 -80 -213 -94 -406 -284 -504 -496 -66 -143 -79 -210 -78 -405 0
-162 2 -182 28 -265 54 -177 153 -329 295 -451 180 -155 381 -237 615 -250
423 -24 786 187 981 571 35 68 45 80 68 83 33 4 57 -13 57 -39 0 -43 -88 -202
-165 -299 -157 -196 -362 -328 -610 -391 -77 -20 -115 -23 -265 -24 -159 0
-185 3 -285 28 -576 146 -929 698 -810 1267 88 419 451 767 880 844 106 19
314 20 408 2z"/>
</g>
<g transform="translate(0.000000,256.000000) scale(0.100000,-0.100000)">
<path fill="#FF7168" stroke="none" d="M1179.0 1905.0 c27 -13 29 -20 40 -112 7 -54 14 -109 16 -123 2 -14 6 -41 9
-60 3 -19 8 -57 11 -85 3 -27 13 -99 20 -160 8 -60 17 -132 20 -160 5 -46 16
-129 21 -147 1 -5 2 -25 3 -45 l2 -38 16 35 c9 19 22 49 29 65 6 17 43 106 80
199 37 93 77 177 88 187 46 44 77 18 155 -127 l55 -102 145 0 c126 -1 147 -3
158 -18 20 -27 16 -61 -9 -78 -29 -21 -345 -23 -370 -3 -9 6 -32 42 -51 79
l-35 68 -32 -78 c-18 -42 -41 -97 -52 -122 -10 -25 -39 -97 -64 -160 -84 -216
-88 -223 -119 -232 -50 -13 -69 6 -81 87 -3 22 -7 49 -9 60 -6 41 -15 101 -20
140 -2 21 -9 73 -15 115 -5 41 -12 95 -15 120 -9 80 -15 123 -25 195 -5 39
-12 95 -16 125 -3 30 -7 56 -8 57 -1 2 -33 -93 -70 -210 -37 -116 -74 -222
-82 -234 -14 -23 -16 -23 -258 -23 -242 0 -244 0 -258 23 -19 27 -15 54 9 73
21 16 21 16 235 18 96 0 171 5 176 11 6 6 51 138 102 295 119 371 112 353 140
367 31 16 26 16 59 -2z m1203 -579 c29 -19 48 -62 48 -107 0 -97 -120 -161
-200 -107 -88 60 -81 180 12 227 43 21 96 16 140 -13z"/>
</g>
</svg>